<svg width="421" height="33" viewBox="0 0 421 33" fill="none" xmlns="http://www.w3.org/2000/svg">
<rect y="15" width="421" height="18" rx="9" fill="#EAC478" fill-opacity="0.71"/>
<rect x="0.5" y="15.5" width="420" height="17" rx="8.5" stroke="black" stroke-opacity="0.25"/>
<rect y="15" width="333.257" height="18" rx="9" fill="#E0AE47"/>
<rect x="0.5" y="15.5" width="332.257" height="17" rx="8.5" stroke="black" stroke-opacity="0.25"/>
<path d="M6.63816 9.144C6.06216 9.144 5.54216 9.044 5.07816 8.844C4.61416 8.636 4.24216 8.344 3.96216 7.968C3.69016 7.592 3.55416 7.156 3.55416 6.66C3.55416 6.148 3.68616 5.7 3.95016 5.316C4.22216 4.932 4.57816 4.656 5.01816 4.488C4.63416 4.32 4.33016 4.08 4.10616 3.768C3.88216 3.448 3.77016 3.092 3.77016 2.7C3.77016 2.3 3.87816 1.932 4.09416 1.596C4.31016 1.252 4.63016 0.976 5.05416 0.767999C5.48616 0.56 6.01416 0.456 6.63816 0.456C7.26216 0.456 7.78616 0.56 8.21016 0.767999C8.63416 0.976 8.95416 1.252 9.17016 1.596C9.38616 1.932 9.49416 2.3 9.49416 2.7C9.49416 3.084 9.37816 3.44 9.14616 3.768C8.92216 4.088 8.62216 4.328 8.24616 4.488C8.69416 4.656 9.05016 4.932 9.31416 5.316C9.57816 5.7 9.71016 6.148 9.71016 6.66C9.71016 7.156 9.57416 7.592 9.30216 7.968C9.03016 8.344 8.65816 8.636 8.18616 8.844C7.72216 9.044 7.20616 9.144 6.63816 9.144ZM6.63816 4.032C7.05416 4.032 7.38216 3.924 7.62216 3.708C7.86216 3.492 7.98216 3.216 7.98216 2.88C7.98216 2.512 7.86216 2.224 7.62216 2.016C7.39016 1.808 7.06216 1.704 6.63816 1.704C6.20616 1.704 5.87416 1.808 5.64216 2.016C5.41016 2.224 5.29416 2.512 5.29416 2.88C5.29416 3.224 5.41016 3.504 5.64216 3.72C5.88216 3.928 6.21416 4.032 6.63816 4.032ZM6.63816 7.86C7.15016 7.86 7.53816 7.736 7.80216 7.488C8.06616 7.232 8.19816 6.912 8.19816 6.528C8.19816 6.104 8.05816 5.772 7.77816 5.532C7.50616 5.292 7.12616 5.172 6.63816 5.172C6.15016 5.172 5.76216 5.292 5.47416 5.532C5.19416 5.772 5.05416 6.104 5.05416 6.528C5.05416 6.912 5.18616 7.232 5.45016 7.488C5.72216 7.736 6.11816 7.86 6.63816 7.86ZM15.061 9V7.44H10.921V6.216L14.857 0.599999H16.597V6.108H17.701V7.44H16.597V9H15.061ZM12.565 6.108H15.157V2.292L12.565 6.108ZM20.4373 4.728C20.0533 4.728 19.7053 4.644 19.3933 4.476C19.0813 4.3 18.8333 4.052 18.6493 3.732C18.4653 3.412 18.3733 3.032 18.3733 2.592C18.3733 2.152 18.4653 1.772 18.6493 1.452C18.8333 1.132 19.0813 0.888 19.3933 0.719999C19.7053 0.544 20.0573 0.456 20.4493 0.456C20.8333 0.456 21.1773 0.544 21.4813 0.719999C21.7933 0.888 22.0413 1.132 22.2253 1.452C22.4093 1.772 22.5013 2.152 22.5013 2.592C22.5013 3.032 22.4093 3.412 22.2253 3.732C22.0413 4.052 21.7933 4.3 21.4813 4.476C21.1693 4.644 20.8213 4.728 20.4373 4.728ZM19.9813 9L24.7213 0.599999H26.2213L21.4813 9H19.9813ZM20.4373 3.66C20.6693 3.66 20.8693 3.572 21.0373 3.396C21.2053 3.212 21.2893 2.944 21.2893 2.592C21.2893 2.24 21.2053 1.972 21.0373 1.788C20.8773 1.604 20.6773 1.512 20.4373 1.512C20.1973 1.512 19.9933 1.604 19.8253 1.788C19.6653 1.972 19.5853 2.24 19.5853 2.592C19.5853 2.944 19.6653 3.212 19.8253 3.396C19.9933 3.572 20.1973 3.66 20.4373 3.66ZM25.8133 9.144C25.4293 9.144 25.0813 9.06 24.7693 8.892C24.4573 8.716 24.2093 8.468 24.0253 8.148C23.8413 7.828 23.7493 7.448 23.7493 7.008C23.7493 6.568 23.8413 6.192 24.0253 5.88C24.2093 5.56 24.4573 5.316 24.7693 5.148C25.0813 4.972 25.4333 4.884 25.8253 4.884C26.2093 4.884 26.5533 4.972 26.8573 5.148C27.1693 5.316 27.4173 5.56 27.6013 5.88C27.7853 6.192 27.8773 6.568 27.8773 7.008C27.8773 7.448 27.7853 7.828 27.6013 8.148C27.4173 8.468 27.1693 8.716 26.8573 8.892C26.5533 9.06 26.2053 9.144 25.8133 9.144ZM25.8133 8.076C26.0533 8.076 26.2533 7.988 26.4133 7.812C26.5813 7.628 26.6653 7.36 26.6653 7.008C26.6653 6.656 26.5813 6.388 26.4133 6.204C26.2533 6.02 26.0533 5.928 25.8133 5.928C25.5733 5.928 25.3693 6.02 25.2013 6.204C25.0413 6.388 24.9613 6.656 24.9613 7.008C24.9613 7.36 25.0413 7.628 25.2013 7.812C25.3693 7.988 25.5733 8.076 25.8133 8.076Z" fill="black"/>
</svg>
