<svg width="582" height="396" viewBox="0 0 582 396" fill="none" xmlns="http://www.w3.org/2000/svg">
<g filter="url(#filter0_d_490_198)">
<rect x="4" width="574" height="388" rx="10" fill="white"/>
<rect x="4.1" y="0.1" width="573.8" height="387.8" rx="9.9" stroke="black" stroke-width="0.2"/>
</g>
<g filter="url(#filter1_d_490_198)">
<rect x="70" y="69" width="47" height="276" rx="10" fill="#E5E5E5"/>
</g>
<rect x="135" y="69" width="47" height="276" rx="10" fill="#E5E5E5"/>
<rect x="200" y="69" width="47" height="276" rx="10" fill="#E5E5E5"/>
<rect x="265" y="69" width="47" height="276" rx="10" fill="#E5E5E5"/>
<rect x="330" y="69" width="47" height="276" rx="10" fill="#E5E5E5"/>
<rect x="395" y="69" width="47" height="276" rx="10" fill="#E5E5E5"/>
<rect x="460" y="69" width="47" height="276" rx="10" fill="#E5E5E5"/>
<path d="M72.4599 370.144C71.8439 370.144 71.3039 370.036 70.8399 369.82C70.3759 369.604 70.0119 369.296 69.7479 368.896C69.4919 368.496 69.3599 368.02 69.3519 367.468H70.6959C70.7039 367.916 70.8599 368.296 71.1639 368.608C71.4679 368.92 71.8959 369.076 72.4479 369.076C72.9359 369.076 73.3159 368.96 73.5879 368.728C73.8679 368.488 74.0079 368.184 74.0079 367.816C74.0079 367.52 73.9399 367.28 73.8039 367.096C73.6759 366.912 73.4959 366.76 73.2639 366.64C73.0399 366.52 72.7799 366.412 72.4839 366.316C72.1879 366.22 71.8759 366.116 71.5479 366.004C70.8999 365.788 70.4119 365.508 70.0839 365.164C69.7639 364.82 69.6039 364.368 69.6039 363.808C69.5959 363.336 69.7039 362.924 69.9279 362.572C70.1599 362.22 70.4799 361.948 70.8879 361.756C71.3039 361.556 71.7879 361.456 72.3399 361.456C72.8839 361.456 73.3599 361.556 73.7679 361.756C74.1839 361.956 74.5079 362.236 74.7399 362.596C74.9719 362.948 75.0919 363.36 75.0999 363.832H73.7559C73.7559 363.616 73.6999 363.412 73.5879 363.22C73.4759 363.02 73.3119 362.856 73.0959 362.728C72.8799 362.6 72.6159 362.536 72.3039 362.536C71.9039 362.528 71.5719 362.628 71.3079 362.836C71.0519 363.044 70.9239 363.332 70.9239 363.7C70.9239 364.028 71.0199 364.28 71.2119 364.456C71.4039 364.632 71.6679 364.78 72.0039 364.9C72.3399 365.012 72.7239 365.144 73.1559 365.296C73.5719 365.432 73.9439 365.596 74.2719 365.788C74.5999 365.98 74.8599 366.232 75.0519 366.544C75.2519 366.856 75.3519 367.252 75.3519 367.732C75.3519 368.156 75.2439 368.552 75.0279 368.92C74.8119 369.28 74.4879 369.576 74.0559 369.808C73.6239 370.032 73.0919 370.144 72.4599 370.144ZM78.8906 370.144C78.1706 370.144 77.6026 369.92 77.1866 369.472C76.7786 369.024 76.5746 368.356 76.5746 367.468V364.048H77.8466V367.336C77.8466 368.488 78.3186 369.064 79.2626 369.064C79.7346 369.064 80.1226 368.896 80.4266 368.56C80.7306 368.224 80.8826 367.744 80.8826 367.12V364.048H82.1546V370H81.0266L80.9306 368.956C80.7466 369.324 80.4746 369.616 80.1146 369.832C79.7626 370.04 79.3546 370.144 78.8906 370.144ZM83.7728 370V364.048H84.9008L84.9968 365.092C85.1808 364.724 85.4488 364.436 85.8008 364.228C86.1608 364.012 86.5728 363.904 87.0368 363.904C87.7568 363.904 88.3208 364.128 88.7288 364.576C89.1448 365.024 89.3528 365.692 89.3528 366.58V370H88.0928V366.712C88.0928 365.56 87.6208 364.984 86.6768 364.984C86.2048 364.984 85.8128 365.152 85.5008 365.488C85.1968 365.824 85.0448 366.304 85.0448 366.928V370H83.7728ZM93.5629 370.144C92.9869 370.144 92.4789 370.008 92.0389 369.736C91.5989 369.464 91.2549 369.092 91.0069 368.62C90.7589 368.148 90.6349 367.612 90.6349 367.012C90.6349 366.412 90.7589 365.88 91.0069 365.416C91.2549 364.944 91.5989 364.576 92.0389 364.312C92.4869 364.04 92.9989 363.904 93.5749 363.904C94.0469 363.904 94.4589 363.996 94.8109 364.18C95.1709 364.364 95.4509 364.624 95.6509 364.96V361.36H96.9229V370H95.7829L95.6509 369.076C95.4589 369.356 95.1949 369.604 94.8589 369.82C94.5229 370.036 94.0909 370.144 93.5629 370.144ZM93.7909 369.04C94.3349 369.04 94.7789 368.852 95.1229 368.476C95.4749 368.1 95.6509 367.616 95.6509 367.024C95.6509 366.424 95.4749 365.94 95.1229 365.572C94.7789 365.196 94.3349 365.008 93.7909 365.008C93.2469 365.008 92.7989 365.196 92.4469 365.572C92.0949 365.94 91.9189 366.424 91.9189 367.024C91.9189 367.416 91.9989 367.764 92.1589 368.068C92.3189 368.372 92.5389 368.612 92.8189 368.788C93.1069 368.956 93.4309 369.04 93.7909 369.04ZM100.543 370.144C100.039 370.144 99.6227 370.06 99.2947 369.892C98.9667 369.724 98.7227 369.504 98.5627 369.232C98.4027 368.952 98.3227 368.648 98.3227 368.32C98.3227 367.744 98.5467 367.288 98.9947 366.952C99.4427 366.616 100.083 366.448 100.915 366.448H102.475V366.34C102.475 365.876 102.347 365.528 102.091 365.296C101.843 365.064 101.519 364.948 101.119 364.948C100.767 364.948 100.459 365.036 100.195 365.212C99.9387 365.38 99.7827 365.632 99.7267 365.968H98.4547C98.4947 365.536 98.6387 365.168 98.8867 364.864C99.1427 364.552 99.4627 364.316 99.8467 364.156C100.239 363.988 100.667 363.904 101.131 363.904C101.963 363.904 102.607 364.124 103.063 364.564C103.519 364.996 103.747 365.588 103.747 366.34V370H102.643L102.535 368.98C102.367 369.308 102.123 369.584 101.803 369.808C101.483 370.032 101.063 370.144 100.543 370.144ZM100.795 369.112C101.139 369.112 101.427 369.032 101.659 368.872C101.899 368.704 102.083 368.484 102.211 368.212C102.347 367.94 102.431 367.64 102.463 367.312H101.047C100.543 367.312 100.183 367.4 99.9667 367.576C99.7587 367.752 99.6547 367.972 99.6547 368.236C99.6547 368.508 99.7547 368.724 99.9547 368.884C100.163 369.036 100.443 369.112 100.795 369.112ZM105.738 372.64L107.166 369.508H106.818L104.466 364.048H105.846L107.67 368.452L109.578 364.048H110.922L107.082 372.64H105.738Z" fill="black"/>
<path d="M136.971 370V361.6H138.471L141.315 367.192L144.147 361.6H145.647V370H144.375V363.796L141.807 368.8H140.823L138.243 363.808V370H136.971ZM150.09 370.144C149.522 370.144 149.01 370.016 148.554 369.76C148.106 369.496 147.75 369.132 147.486 368.668C147.222 368.196 147.09 367.648 147.09 367.024C147.09 366.4 147.222 365.856 147.486 365.392C147.758 364.92 148.122 364.556 148.578 364.3C149.034 364.036 149.542 363.904 150.102 363.904C150.67 363.904 151.178 364.036 151.626 364.3C152.082 364.556 152.442 364.92 152.706 365.392C152.978 365.856 153.114 366.4 153.114 367.024C153.114 367.648 152.978 368.196 152.706 368.668C152.442 369.132 152.082 369.496 151.626 369.76C151.17 370.016 150.658 370.144 150.09 370.144ZM150.09 369.052C150.394 369.052 150.674 368.976 150.93 368.824C151.194 368.672 151.406 368.448 151.566 368.152C151.726 367.848 151.806 367.472 151.806 367.024C151.806 366.576 151.726 366.204 151.566 365.908C151.414 365.604 151.206 365.376 150.942 365.224C150.686 365.072 150.406 364.996 150.102 364.996C149.798 364.996 149.514 365.072 149.25 365.224C148.994 365.376 148.786 365.604 148.626 365.908C148.466 366.204 148.386 366.576 148.386 367.024C148.386 367.472 148.466 367.848 148.626 368.152C148.786 368.448 148.994 368.672 149.25 368.824C149.506 368.976 149.786 369.052 150.09 369.052ZM154.49 370V364.048H155.618L155.714 365.092C155.898 364.724 156.166 364.436 156.518 364.228C156.878 364.012 157.29 363.904 157.754 363.904C158.474 363.904 159.038 364.128 159.446 364.576C159.862 365.024 160.07 365.692 160.07 366.58V370H158.81V366.712C158.81 365.56 158.338 364.984 157.394 364.984C156.922 364.984 156.53 365.152 156.218 365.488C155.914 365.824 155.762 366.304 155.762 366.928V370H154.49ZM164.28 370.144C163.704 370.144 163.196 370.008 162.756 369.736C162.316 369.464 161.972 369.092 161.724 368.62C161.476 368.148 161.352 367.612 161.352 367.012C161.352 366.412 161.476 365.88 161.724 365.416C161.972 364.944 162.316 364.576 162.756 364.312C163.204 364.04 163.716 363.904 164.292 363.904C164.764 363.904 165.176 363.996 165.528 364.18C165.888 364.364 166.168 364.624 166.368 364.96V361.36H167.64V370H166.5L166.368 369.076C166.176 369.356 165.912 369.604 165.576 369.82C165.24 370.036 164.808 370.144 164.28 370.144ZM164.508 369.04C165.052 369.04 165.496 368.852 165.84 368.476C166.192 368.1 166.368 367.616 166.368 367.024C166.368 366.424 166.192 365.94 165.84 365.572C165.496 365.196 165.052 365.008 164.508 365.008C163.964 365.008 163.516 365.196 163.164 365.572C162.812 365.94 162.636 366.424 162.636 367.024C162.636 367.416 162.716 367.764 162.876 368.068C163.036 368.372 163.256 368.612 163.536 368.788C163.824 368.956 164.148 369.04 164.508 369.04ZM171.259 370.144C170.755 370.144 170.339 370.06 170.011 369.892C169.683 369.724 169.439 369.504 169.279 369.232C169.119 368.952 169.039 368.648 169.039 368.32C169.039 367.744 169.263 367.288 169.711 366.952C170.159 366.616 170.799 366.448 171.631 366.448H173.191V366.34C173.191 365.876 173.063 365.528 172.807 365.296C172.559 365.064 172.235 364.948 171.835 364.948C171.483 364.948 171.175 365.036 170.911 365.212C170.655 365.38 170.499 365.632 170.443 365.968H169.171C169.211 365.536 169.355 365.168 169.603 364.864C169.859 364.552 170.179 364.316 170.563 364.156C170.955 363.988 171.383 363.904 171.847 363.904C172.679 363.904 173.323 364.124 173.779 364.564C174.235 364.996 174.463 365.588 174.463 366.34V370H173.359L173.251 368.98C173.083 369.308 172.839 369.584 172.519 369.808C172.199 370.032 171.779 370.144 171.259 370.144ZM171.511 369.112C171.855 369.112 172.143 369.032 172.375 368.872C172.615 368.704 172.799 368.484 172.927 368.212C173.063 367.94 173.147 367.64 173.179 367.312H171.763C171.259 367.312 170.899 367.4 170.683 367.576C170.475 367.752 170.371 367.972 170.371 368.236C170.371 368.508 170.471 368.724 170.671 368.884C170.879 369.036 171.159 369.112 171.511 369.112ZM176.455 372.64L177.883 369.508H177.535L175.183 364.048H176.563L178.387 368.452L180.295 364.048H181.639L177.799 372.64H176.455Z" fill="black"/>
<path d="M202.996 370V362.632H200.512V361.6H206.74V362.632H204.268V370H202.996ZM209.48 370.144C208.76 370.144 208.192 369.92 207.776 369.472C207.368 369.024 207.164 368.356 207.164 367.468V364.048H208.436V367.336C208.436 368.488 208.908 369.064 209.852 369.064C210.324 369.064 210.712 368.896 211.016 368.56C211.32 368.224 211.472 367.744 211.472 367.12V364.048H212.744V370H211.616L211.52 368.956C211.336 369.324 211.064 369.616 210.704 369.832C210.352 370.04 209.944 370.144 209.48 370.144ZM217.147 370.144C216.563 370.144 216.043 370.016 215.587 369.76C215.139 369.496 214.787 369.132 214.531 368.668C214.275 368.204 214.147 367.664 214.147 367.048C214.147 366.424 214.271 365.876 214.519 365.404C214.775 364.932 215.127 364.564 215.575 364.3C216.031 364.036 216.559 363.904 217.159 363.904C217.743 363.904 218.251 364.036 218.683 364.3C219.115 364.556 219.451 364.9 219.691 365.332C219.931 365.764 220.051 366.24 220.051 366.76C220.051 366.84 220.047 366.928 220.039 367.024C220.039 367.112 220.035 367.212 220.027 367.324H215.395C215.435 367.9 215.623 368.34 215.959 368.644C216.303 368.94 216.699 369.088 217.147 369.088C217.507 369.088 217.807 369.008 218.047 368.848C218.295 368.68 218.479 368.456 218.599 368.176H219.871C219.711 368.736 219.391 369.204 218.911 369.58C218.439 369.956 217.851 370.144 217.147 370.144ZM217.147 364.948C216.723 364.948 216.347 365.076 216.019 365.332C215.691 365.58 215.491 365.956 215.419 366.46H218.779C218.755 365.996 218.591 365.628 218.287 365.356C217.983 365.084 217.603 364.948 217.147 364.948ZM223.746 370.144C222.994 370.144 222.374 369.96 221.886 369.592C221.398 369.224 221.118 368.736 221.046 368.128H222.33C222.394 368.4 222.546 368.636 222.786 368.836C223.026 369.028 223.342 369.124 223.734 369.124C224.118 369.124 224.398 369.044 224.574 368.884C224.75 368.724 224.838 368.54 224.838 368.332C224.838 368.028 224.714 367.824 224.466 367.72C224.226 367.608 223.89 367.508 223.458 367.42C223.122 367.348 222.786 367.252 222.45 367.132C222.122 367.012 221.846 366.844 221.622 366.628C221.406 366.404 221.298 366.104 221.298 365.728C221.298 365.208 221.498 364.776 221.898 364.432C222.298 364.08 222.858 363.904 223.578 363.904C224.242 363.904 224.778 364.064 225.186 364.384C225.602 364.704 225.846 365.156 225.918 365.74H224.694C224.654 365.484 224.534 365.284 224.334 365.14C224.142 364.996 223.882 364.924 223.554 364.924C223.234 364.924 222.986 364.992 222.81 365.128C222.634 365.256 222.546 365.424 222.546 365.632C222.546 365.84 222.666 366.004 222.906 366.124C223.154 366.244 223.478 366.352 223.878 366.448C224.278 366.536 224.646 366.64 224.982 366.76C225.326 366.872 225.602 367.04 225.81 367.264C226.018 367.488 226.122 367.816 226.122 368.248C226.13 368.792 225.918 369.244 225.486 369.604C225.062 369.964 224.482 370.144 223.746 370.144ZM230.223 370.144C229.647 370.144 229.139 370.008 228.699 369.736C228.259 369.464 227.915 369.092 227.667 368.62C227.419 368.148 227.295 367.612 227.295 367.012C227.295 366.412 227.419 365.88 227.667 365.416C227.915 364.944 228.259 364.576 228.699 364.312C229.147 364.04 229.659 363.904 230.235 363.904C230.707 363.904 231.119 363.996 231.471 364.18C231.831 364.364 232.111 364.624 232.311 364.96V361.36H233.583V370H232.443L232.311 369.076C232.119 369.356 231.855 369.604 231.519 369.82C231.183 370.036 230.751 370.144 230.223 370.144ZM230.451 369.04C230.995 369.04 231.439 368.852 231.783 368.476C232.135 368.1 232.311 367.616 232.311 367.024C232.311 366.424 232.135 365.94 231.783 365.572C231.439 365.196 230.995 365.008 230.451 365.008C229.907 365.008 229.459 365.196 229.107 365.572C228.755 365.94 228.579 366.424 228.579 367.024C228.579 367.416 228.659 367.764 228.819 368.068C228.979 368.372 229.199 368.612 229.479 368.788C229.767 368.956 230.091 369.04 230.451 369.04ZM237.203 370.144C236.699 370.144 236.283 370.06 235.955 369.892C235.627 369.724 235.383 369.504 235.223 369.232C235.063 368.952 234.983 368.648 234.983 368.32C234.983 367.744 235.207 367.288 235.655 366.952C236.103 366.616 236.743 366.448 237.575 366.448H239.135V366.34C239.135 365.876 239.007 365.528 238.751 365.296C238.503 365.064 238.179 364.948 237.779 364.948C237.427 364.948 237.119 365.036 236.855 365.212C236.599 365.38 236.443 365.632 236.387 365.968H235.115C235.155 365.536 235.299 365.168 235.547 364.864C235.803 364.552 236.123 364.316 236.507 364.156C236.899 363.988 237.327 363.904 237.791 363.904C238.623 363.904 239.267 364.124 239.723 364.564C240.179 364.996 240.407 365.588 240.407 366.34V370H239.303L239.195 368.98C239.027 369.308 238.783 369.584 238.463 369.808C238.143 370.032 237.723 370.144 237.203 370.144ZM237.455 369.112C237.799 369.112 238.087 369.032 238.319 368.872C238.559 368.704 238.743 368.484 238.871 368.212C239.007 367.94 239.091 367.64 239.123 367.312H237.707C237.203 367.312 236.843 367.4 236.627 367.576C236.419 367.752 236.315 367.972 236.315 368.236C236.315 368.508 236.415 368.724 236.615 368.884C236.823 369.036 237.103 369.112 237.455 369.112ZM242.398 372.64L243.826 369.508H243.478L241.126 364.048H242.506L244.33 368.452L246.238 364.048H247.582L243.742 372.64H242.398Z" fill="black"/>
<path d="M257.929 370.012L255.661 361.6H257.029L258.697 368.56L260.617 361.6H262.021L263.881 368.56L265.549 361.6H266.917L264.613 370H263.125L261.289 363.412L259.393 370L257.929 370.012ZM270.199 370.144C269.615 370.144 269.095 370.016 268.639 369.76C268.191 369.496 267.839 369.132 267.583 368.668C267.327 368.204 267.199 367.664 267.199 367.048C267.199 366.424 267.323 365.876 267.571 365.404C267.827 364.932 268.179 364.564 268.627 364.3C269.083 364.036 269.611 363.904 270.211 363.904C270.795 363.904 271.303 364.036 271.735 364.3C272.167 364.556 272.503 364.9 272.743 365.332C272.983 365.764 273.103 366.24 273.103 366.76C273.103 366.84 273.099 366.928 273.091 367.024C273.091 367.112 273.087 367.212 273.079 367.324H268.447C268.487 367.9 268.675 368.34 269.011 368.644C269.355 368.94 269.751 369.088 270.199 369.088C270.559 369.088 270.859 369.008 271.099 368.848C271.347 368.68 271.531 368.456 271.651 368.176H272.923C272.763 368.736 272.443 369.204 271.963 369.58C271.491 369.956 270.903 370.144 270.199 370.144ZM270.199 364.948C269.775 364.948 269.399 365.076 269.071 365.332C268.743 365.58 268.543 365.956 268.471 366.46H271.831C271.807 365.996 271.643 365.628 271.339 365.356C271.035 365.084 270.655 364.948 270.199 364.948ZM277.135 370.144C276.559 370.144 276.051 370.008 275.611 369.736C275.171 369.464 274.827 369.092 274.579 368.62C274.331 368.148 274.207 367.612 274.207 367.012C274.207 366.412 274.331 365.88 274.579 365.416C274.827 364.944 275.171 364.576 275.611 364.312C276.059 364.04 276.571 363.904 277.147 363.904C277.619 363.904 278.031 363.996 278.383 364.18C278.743 364.364 279.023 364.624 279.223 364.96V361.36H280.495V370H279.355L279.223 369.076C279.031 369.356 278.767 369.604 278.431 369.82C278.095 370.036 277.663 370.144 277.135 370.144ZM277.363 369.04C277.907 369.04 278.351 368.852 278.695 368.476C279.047 368.1 279.223 367.616 279.223 367.024C279.223 366.424 279.047 365.94 278.695 365.572C278.351 365.196 277.907 365.008 277.363 365.008C276.819 365.008 276.371 365.196 276.019 365.572C275.667 365.94 275.491 366.424 275.491 367.024C275.491 367.416 275.571 367.764 275.731 368.068C275.891 368.372 276.111 368.612 276.391 368.788C276.679 368.956 277.003 369.04 277.363 369.04ZM282.099 370V364.048H283.227L283.323 365.092C283.507 364.724 283.775 364.436 284.127 364.228C284.487 364.012 284.899 363.904 285.363 363.904C286.083 363.904 286.647 364.128 287.055 364.576C287.471 365.024 287.679 365.692 287.679 366.58V370H286.419V366.712C286.419 365.56 285.947 364.984 285.003 364.984C284.531 364.984 284.139 365.152 283.827 365.488C283.523 365.824 283.371 366.304 283.371 366.928V370H282.099ZM291.961 370.144C291.377 370.144 290.857 370.016 290.401 369.76C289.953 369.496 289.601 369.132 289.345 368.668C289.089 368.204 288.961 367.664 288.961 367.048C288.961 366.424 289.085 365.876 289.333 365.404C289.589 364.932 289.941 364.564 290.389 364.3C290.845 364.036 291.373 363.904 291.973 363.904C292.557 363.904 293.065 364.036 293.497 364.3C293.929 364.556 294.265 364.9 294.505 365.332C294.745 365.764 294.865 366.24 294.865 366.76C294.865 366.84 294.861 366.928 294.853 367.024C294.853 367.112 294.849 367.212 294.841 367.324H290.209C290.249 367.9 290.437 368.34 290.773 368.644C291.117 368.94 291.513 369.088 291.961 369.088C292.321 369.088 292.621 369.008 292.861 368.848C293.109 368.68 293.293 368.456 293.413 368.176H294.685C294.525 368.736 294.205 369.204 293.725 369.58C293.253 369.956 292.665 370.144 291.961 370.144ZM291.961 364.948C291.537 364.948 291.161 365.076 290.833 365.332C290.505 365.58 290.305 365.956 290.233 366.46H293.593C293.569 365.996 293.405 365.628 293.101 365.356C292.797 365.084 292.417 364.948 291.961 364.948ZM298.561 370.144C297.809 370.144 297.189 369.96 296.701 369.592C296.213 369.224 295.933 368.736 295.861 368.128H297.145C297.209 368.4 297.361 368.636 297.601 368.836C297.841 369.028 298.157 369.124 298.549 369.124C298.933 369.124 299.213 369.044 299.389 368.884C299.565 368.724 299.653 368.54 299.653 368.332C299.653 368.028 299.529 367.824 299.281 367.72C299.041 367.608 298.705 367.508 298.273 367.42C297.937 367.348 297.601 367.252 297.265 367.132C296.937 367.012 296.661 366.844 296.437 366.628C296.221 366.404 296.113 366.104 296.113 365.728C296.113 365.208 296.313 364.776 296.713 364.432C297.113 364.08 297.673 363.904 298.393 363.904C299.057 363.904 299.593 364.064 300.001 364.384C300.417 364.704 300.661 365.156 300.733 365.74H299.509C299.469 365.484 299.349 365.284 299.149 365.14C298.957 364.996 298.697 364.924 298.369 364.924C298.049 364.924 297.801 364.992 297.625 365.128C297.449 365.256 297.361 365.424 297.361 365.632C297.361 365.84 297.481 366.004 297.721 366.124C297.969 366.244 298.293 366.352 298.693 366.448C299.093 366.536 299.461 366.64 299.797 366.76C300.141 366.872 300.417 367.04 300.625 367.264C300.833 367.488 300.937 367.816 300.937 368.248C300.945 368.792 300.733 369.244 300.301 369.604C299.877 369.964 299.297 370.144 298.561 370.144ZM305.037 370.144C304.461 370.144 303.953 370.008 303.513 369.736C303.073 369.464 302.729 369.092 302.481 368.62C302.233 368.148 302.109 367.612 302.109 367.012C302.109 366.412 302.233 365.88 302.481 365.416C302.729 364.944 303.073 364.576 303.513 364.312C303.961 364.04 304.473 363.904 305.049 363.904C305.521 363.904 305.933 363.996 306.285 364.18C306.645 364.364 306.925 364.624 307.125 364.96V361.36H308.397V370H307.257L307.125 369.076C306.933 369.356 306.669 369.604 306.333 369.82C305.997 370.036 305.565 370.144 305.037 370.144ZM305.265 369.04C305.809 369.04 306.253 368.852 306.597 368.476C306.949 368.1 307.125 367.616 307.125 367.024C307.125 366.424 306.949 365.94 306.597 365.572C306.253 365.196 305.809 365.008 305.265 365.008C304.721 365.008 304.273 365.196 303.921 365.572C303.569 365.94 303.393 366.424 303.393 367.024C303.393 367.416 303.473 367.764 303.633 368.068C303.793 368.372 304.013 368.612 304.293 368.788C304.581 368.956 304.905 369.04 305.265 369.04ZM312.017 370.144C311.513 370.144 311.097 370.06 310.769 369.892C310.441 369.724 310.197 369.504 310.037 369.232C309.877 368.952 309.797 368.648 309.797 368.32C309.797 367.744 310.021 367.288 310.469 366.952C310.917 366.616 311.557 366.448 312.389 366.448H313.949V366.34C313.949 365.876 313.821 365.528 313.565 365.296C313.317 365.064 312.993 364.948 312.593 364.948C312.241 364.948 311.933 365.036 311.669 365.212C311.413 365.38 311.257 365.632 311.201 365.968H309.929C309.969 365.536 310.113 365.168 310.361 364.864C310.617 364.552 310.937 364.316 311.321 364.156C311.713 363.988 312.141 363.904 312.605 363.904C313.437 363.904 314.081 364.124 314.537 364.564C314.993 364.996 315.221 365.588 315.221 366.34V370H314.117L314.009 368.98C313.841 369.308 313.597 369.584 313.277 369.808C312.957 370.032 312.537 370.144 312.017 370.144ZM312.269 369.112C312.613 369.112 312.901 369.032 313.133 368.872C313.373 368.704 313.557 368.484 313.685 368.212C313.821 367.94 313.905 367.64 313.937 367.312H312.521C312.017 367.312 311.657 367.4 311.441 367.576C311.233 367.752 311.129 367.972 311.129 368.236C311.129 368.508 311.229 368.724 311.429 368.884C311.637 369.036 311.917 369.112 312.269 369.112ZM317.213 372.64L318.641 369.508H318.293L315.941 364.048H317.321L319.145 368.452L321.053 364.048H322.397L318.557 372.64H317.213Z" fill="black"/>
<path d="M330.383 370V362.632H327.899V361.6H334.127V362.632H331.655V370H330.383ZM335.269 370V361.36H336.541V365.008C336.741 364.664 337.017 364.396 337.369 364.204C337.729 364.004 338.125 363.904 338.557 363.904C339.269 363.904 339.829 364.128 340.237 364.576C340.645 365.024 340.849 365.692 340.849 366.58V370H339.589V366.712C339.589 365.56 339.129 364.984 338.209 364.984C337.729 364.984 337.329 365.152 337.009 365.488C336.697 365.824 336.541 366.304 336.541 366.928V370H335.269ZM344.543 370.144C343.823 370.144 343.255 369.92 342.839 369.472C342.431 369.024 342.227 368.356 342.227 367.468V364.048H343.499V367.336C343.499 368.488 343.971 369.064 344.915 369.064C345.387 369.064 345.775 368.896 346.079 368.56C346.383 368.224 346.535 367.744 346.535 367.12V364.048H347.807V370H346.679L346.583 368.956C346.399 369.324 346.127 369.616 345.767 369.832C345.415 370.04 345.007 370.144 344.543 370.144ZM349.425 370V364.048H350.565L350.673 365.176C350.881 364.784 351.169 364.476 351.537 364.252C351.913 364.02 352.365 363.904 352.893 363.904V365.236H352.545C352.193 365.236 351.877 365.296 351.597 365.416C351.325 365.528 351.105 365.724 350.937 366.004C350.777 366.276 350.697 366.656 350.697 367.144V370H349.425ZM356.36 370.144C355.608 370.144 354.988 369.96 354.5 369.592C354.012 369.224 353.732 368.736 353.66 368.128H354.944C355.008 368.4 355.16 368.636 355.4 368.836C355.64 369.028 355.956 369.124 356.348 369.124C356.732 369.124 357.012 369.044 357.188 368.884C357.364 368.724 357.452 368.54 357.452 368.332C357.452 368.028 357.328 367.824 357.08 367.72C356.84 367.608 356.504 367.508 356.072 367.42C355.736 367.348 355.4 367.252 355.064 367.132C354.736 367.012 354.46 366.844 354.236 366.628C354.02 366.404 353.912 366.104 353.912 365.728C353.912 365.208 354.112 364.776 354.512 364.432C354.912 364.08 355.472 363.904 356.192 363.904C356.856 363.904 357.392 364.064 357.8 364.384C358.216 364.704 358.46 365.156 358.532 365.74H357.308C357.268 365.484 357.148 365.284 356.948 365.14C356.756 364.996 356.496 364.924 356.168 364.924C355.848 364.924 355.6 364.992 355.424 365.128C355.248 365.256 355.16 365.424 355.16 365.632C355.16 365.84 355.28 366.004 355.52 366.124C355.768 366.244 356.092 366.352 356.492 366.448C356.892 366.536 357.26 366.64 357.596 366.76C357.94 366.872 358.216 367.04 358.424 367.264C358.632 367.488 358.736 367.816 358.736 368.248C358.744 368.792 358.532 369.244 358.1 369.604C357.676 369.964 357.096 370.144 356.36 370.144ZM362.836 370.144C362.26 370.144 361.752 370.008 361.312 369.736C360.872 369.464 360.528 369.092 360.28 368.62C360.032 368.148 359.908 367.612 359.908 367.012C359.908 366.412 360.032 365.88 360.28 365.416C360.528 364.944 360.872 364.576 361.312 364.312C361.76 364.04 362.272 363.904 362.848 363.904C363.32 363.904 363.732 363.996 364.084 364.18C364.444 364.364 364.724 364.624 364.924 364.96V361.36H366.196V370H365.056L364.924 369.076C364.732 369.356 364.468 369.604 364.132 369.82C363.796 370.036 363.364 370.144 362.836 370.144ZM363.064 369.04C363.608 369.04 364.052 368.852 364.396 368.476C364.748 368.1 364.924 367.616 364.924 367.024C364.924 366.424 364.748 365.94 364.396 365.572C364.052 365.196 363.608 365.008 363.064 365.008C362.52 365.008 362.072 365.196 361.72 365.572C361.368 365.94 361.192 366.424 361.192 367.024C361.192 367.416 361.272 367.764 361.432 368.068C361.592 368.372 361.812 368.612 362.092 368.788C362.38 368.956 362.704 369.04 363.064 369.04ZM369.816 370.144C369.312 370.144 368.896 370.06 368.568 369.892C368.24 369.724 367.996 369.504 367.836 369.232C367.676 368.952 367.596 368.648 367.596 368.32C367.596 367.744 367.82 367.288 368.268 366.952C368.716 366.616 369.356 366.448 370.188 366.448H371.748V366.34C371.748 365.876 371.62 365.528 371.364 365.296C371.116 365.064 370.792 364.948 370.392 364.948C370.04 364.948 369.732 365.036 369.468 365.212C369.212 365.38 369.056 365.632 369 365.968H367.728C367.768 365.536 367.912 365.168 368.16 364.864C368.416 364.552 368.736 364.316 369.12 364.156C369.512 363.988 369.94 363.904 370.404 363.904C371.236 363.904 371.88 364.124 372.336 364.564C372.792 364.996 373.02 365.588 373.02 366.34V370H371.916L371.808 368.98C371.64 369.308 371.396 369.584 371.076 369.808C370.756 370.032 370.336 370.144 369.816 370.144ZM370.068 369.112C370.412 369.112 370.7 369.032 370.932 368.872C371.172 368.704 371.356 368.484 371.484 368.212C371.62 367.94 371.704 367.64 371.736 367.312H370.32C369.816 367.312 369.456 367.4 369.24 367.576C369.032 367.752 368.928 367.972 368.928 368.236C368.928 368.508 369.028 368.724 369.228 368.884C369.436 369.036 369.716 369.112 370.068 369.112ZM375.012 372.64L376.44 369.508H376.092L373.74 364.048H375.12L376.944 368.452L378.852 364.048H380.196L376.356 372.64H375.012Z" fill="black"/>
<path d="M402.239 370V361.6H407.507V362.632H403.511V365.284H406.823V366.304H403.511V370H402.239ZM408.706 370V364.048H409.846L409.954 365.176C410.162 364.784 410.45 364.476 410.818 364.252C411.194 364.02 411.646 363.904 412.174 363.904V365.236H411.826C411.474 365.236 411.158 365.296 410.878 365.416C410.606 365.528 410.386 365.724 410.218 366.004C410.058 366.276 409.978 366.656 409.978 367.144V370H408.706ZM413.985 362.92C413.745 362.92 413.545 362.848 413.385 362.704C413.233 362.552 413.157 362.364 413.157 362.14C413.157 361.916 413.233 361.732 413.385 361.588C413.545 361.436 413.745 361.36 413.985 361.36C414.225 361.36 414.421 361.436 414.573 361.588C414.733 361.732 414.813 361.916 414.813 362.14C414.813 362.364 414.733 362.552 414.573 362.704C414.421 362.848 414.225 362.92 413.985 362.92ZM413.349 370V364.048H414.621V370H413.349ZM419.012 370.144C418.436 370.144 417.928 370.008 417.488 369.736C417.048 369.464 416.704 369.092 416.456 368.62C416.208 368.148 416.084 367.612 416.084 367.012C416.084 366.412 416.208 365.88 416.456 365.416C416.704 364.944 417.048 364.576 417.488 364.312C417.936 364.04 418.448 363.904 419.024 363.904C419.496 363.904 419.908 363.996 420.26 364.18C420.62 364.364 420.9 364.624 421.1 364.96V361.36H422.372V370H421.232L421.1 369.076C420.908 369.356 420.644 369.604 420.308 369.82C419.972 370.036 419.54 370.144 419.012 370.144ZM419.24 369.04C419.784 369.04 420.228 368.852 420.572 368.476C420.924 368.1 421.1 367.616 421.1 367.024C421.1 366.424 420.924 365.94 420.572 365.572C420.228 365.196 419.784 365.008 419.24 365.008C418.696 365.008 418.248 365.196 417.896 365.572C417.544 365.94 417.368 366.424 417.368 367.024C417.368 367.416 417.448 367.764 417.608 368.068C417.768 368.372 417.988 368.612 418.268 368.788C418.556 368.956 418.88 369.04 419.24 369.04ZM425.992 370.144C425.488 370.144 425.072 370.06 424.744 369.892C424.416 369.724 424.172 369.504 424.012 369.232C423.852 368.952 423.772 368.648 423.772 368.32C423.772 367.744 423.996 367.288 424.444 366.952C424.892 366.616 425.532 366.448 426.364 366.448H427.924V366.34C427.924 365.876 427.796 365.528 427.54 365.296C427.292 365.064 426.968 364.948 426.568 364.948C426.216 364.948 425.908 365.036 425.644 365.212C425.388 365.38 425.232 365.632 425.176 365.968H423.904C423.944 365.536 424.088 365.168 424.336 364.864C424.592 364.552 424.912 364.316 425.296 364.156C425.688 363.988 426.116 363.904 426.58 363.904C427.412 363.904 428.056 364.124 428.512 364.564C428.968 364.996 429.196 365.588 429.196 366.34V370H428.092L427.984 368.98C427.816 369.308 427.572 369.584 427.252 369.808C426.932 370.032 426.512 370.144 425.992 370.144ZM426.244 369.112C426.588 369.112 426.876 369.032 427.108 368.872C427.348 368.704 427.532 368.484 427.66 368.212C427.796 367.94 427.88 367.64 427.912 367.312H426.496C425.992 367.312 425.632 367.4 425.416 367.576C425.208 367.752 425.104 367.972 425.104 368.236C425.104 368.508 425.204 368.724 425.404 368.884C425.612 369.036 425.892 369.112 426.244 369.112ZM431.188 372.64L432.616 369.508H432.268L429.916 364.048H431.296L433.12 368.452L435.028 364.048H436.372L432.532 372.64H431.188Z" fill="black"/>
<path d="M462.083 370.144C461.467 370.144 460.927 370.036 460.463 369.82C459.999 369.604 459.635 369.296 459.371 368.896C459.115 368.496 458.983 368.02 458.975 367.468H460.319C460.327 367.916 460.483 368.296 460.787 368.608C461.091 368.92 461.519 369.076 462.071 369.076C462.559 369.076 462.939 368.96 463.211 368.728C463.491 368.488 463.631 368.184 463.631 367.816C463.631 367.52 463.563 367.28 463.427 367.096C463.299 366.912 463.119 366.76 462.887 366.64C462.663 366.52 462.403 366.412 462.107 366.316C461.811 366.22 461.499 366.116 461.171 366.004C460.523 365.788 460.035 365.508 459.707 365.164C459.387 364.82 459.227 364.368 459.227 363.808C459.219 363.336 459.327 362.924 459.551 362.572C459.783 362.22 460.103 361.948 460.511 361.756C460.927 361.556 461.411 361.456 461.963 361.456C462.507 361.456 462.983 361.556 463.391 361.756C463.807 361.956 464.131 362.236 464.363 362.596C464.595 362.948 464.715 363.36 464.723 363.832H463.379C463.379 363.616 463.323 363.412 463.211 363.22C463.099 363.02 462.935 362.856 462.719 362.728C462.503 362.6 462.239 362.536 461.927 362.536C461.527 362.528 461.195 362.628 460.931 362.836C460.675 363.044 460.547 363.332 460.547 363.7C460.547 364.028 460.643 364.28 460.835 364.456C461.027 364.632 461.291 364.78 461.627 364.9C461.963 365.012 462.347 365.144 462.779 365.296C463.195 365.432 463.567 365.596 463.895 365.788C464.223 365.98 464.483 366.232 464.675 366.544C464.875 366.856 464.975 367.252 464.975 367.732C464.975 368.156 464.867 368.552 464.651 368.92C464.435 369.28 464.111 369.576 463.679 369.808C463.247 370.032 462.715 370.144 462.083 370.144ZM468.334 370.144C467.83 370.144 467.414 370.06 467.086 369.892C466.758 369.724 466.514 369.504 466.354 369.232C466.194 368.952 466.114 368.648 466.114 368.32C466.114 367.744 466.338 367.288 466.786 366.952C467.234 366.616 467.874 366.448 468.706 366.448H470.266V366.34C470.266 365.876 470.138 365.528 469.882 365.296C469.634 365.064 469.31 364.948 468.91 364.948C468.558 364.948 468.25 365.036 467.986 365.212C467.73 365.38 467.574 365.632 467.518 365.968H466.246C466.286 365.536 466.43 365.168 466.678 364.864C466.934 364.552 467.254 364.316 467.638 364.156C468.03 363.988 468.458 363.904 468.922 363.904C469.754 363.904 470.398 364.124 470.854 364.564C471.31 364.996 471.538 365.588 471.538 366.34V370H470.434L470.326 368.98C470.158 369.308 469.914 369.584 469.594 369.808C469.274 370.032 468.854 370.144 468.334 370.144ZM468.586 369.112C468.93 369.112 469.218 369.032 469.45 368.872C469.69 368.704 469.874 368.484 470.002 368.212C470.138 367.94 470.222 367.64 470.254 367.312H468.838C468.334 367.312 467.974 367.4 467.758 367.576C467.55 367.752 467.446 367.972 467.446 368.236C467.446 368.508 467.546 368.724 467.746 368.884C467.954 369.036 468.234 369.112 468.586 369.112ZM475.4 370C474.816 370 474.352 369.86 474.008 369.58C473.664 369.292 473.492 368.784 473.492 368.056V365.116H472.472V364.048H473.492L473.648 362.536H474.764V364.048H476.444V365.116H474.764V368.056C474.764 368.384 474.832 368.612 474.968 368.74C475.112 368.86 475.356 368.92 475.7 368.92H476.384V370H475.4ZM479.951 370.144C479.231 370.144 478.663 369.92 478.247 369.472C477.839 369.024 477.635 368.356 477.635 367.468V364.048H478.907V367.336C478.907 368.488 479.379 369.064 480.323 369.064C480.795 369.064 481.183 368.896 481.487 368.56C481.791 368.224 481.943 367.744 481.943 367.12V364.048H483.215V370H482.087L481.991 368.956C481.807 369.324 481.535 369.616 481.175 369.832C480.823 370.04 480.415 370.144 479.951 370.144ZM484.833 370V364.048H485.973L486.081 365.176C486.289 364.784 486.577 364.476 486.945 364.252C487.321 364.02 487.773 363.904 488.301 363.904V365.236H487.953C487.601 365.236 487.285 365.296 487.005 365.416C486.733 365.528 486.513 365.724 486.345 366.004C486.185 366.276 486.105 366.656 486.105 367.144V370H484.833ZM491.94 370.144C491.364 370.144 490.856 370.008 490.416 369.736C489.976 369.464 489.632 369.092 489.384 368.62C489.136 368.148 489.012 367.612 489.012 367.012C489.012 366.412 489.136 365.88 489.384 365.416C489.632 364.944 489.976 364.576 490.416 364.312C490.864 364.04 491.376 363.904 491.952 363.904C492.424 363.904 492.836 363.996 493.188 364.18C493.548 364.364 493.828 364.624 494.028 364.96V361.36H495.3V370H494.16L494.028 369.076C493.836 369.356 493.572 369.604 493.236 369.82C492.9 370.036 492.468 370.144 491.94 370.144ZM492.168 369.04C492.712 369.04 493.156 368.852 493.5 368.476C493.852 368.1 494.028 367.616 494.028 367.024C494.028 366.424 493.852 365.94 493.5 365.572C493.156 365.196 492.712 365.008 492.168 365.008C491.624 365.008 491.176 365.196 490.824 365.572C490.472 365.94 490.296 366.424 490.296 367.024C490.296 367.416 490.376 367.764 490.536 368.068C490.696 368.372 490.916 368.612 491.196 368.788C491.484 368.956 491.808 369.04 492.168 369.04ZM498.92 370.144C498.416 370.144 498 370.06 497.672 369.892C497.344 369.724 497.1 369.504 496.94 369.232C496.78 368.952 496.7 368.648 496.7 368.32C496.7 367.744 496.924 367.288 497.372 366.952C497.82 366.616 498.46 366.448 499.292 366.448H500.852V366.34C500.852 365.876 500.724 365.528 500.468 365.296C500.22 365.064 499.896 364.948 499.496 364.948C499.144 364.948 498.836 365.036 498.572 365.212C498.316 365.38 498.16 365.632 498.104 365.968H496.832C496.872 365.536 497.016 365.168 497.264 364.864C497.52 364.552 497.84 364.316 498.224 364.156C498.616 363.988 499.044 363.904 499.508 363.904C500.34 363.904 500.984 364.124 501.44 364.564C501.896 364.996 502.124 365.588 502.124 366.34V370H501.02L500.912 368.98C500.744 369.308 500.5 369.584 500.18 369.808C499.86 370.032 499.44 370.144 498.92 370.144ZM499.172 369.112C499.516 369.112 499.804 369.032 500.036 368.872C500.276 368.704 500.46 368.484 500.588 368.212C500.724 367.94 500.808 367.64 500.84 367.312H499.424C498.92 367.312 498.56 367.4 498.344 367.576C498.136 367.752 498.032 367.972 498.032 368.236C498.032 368.508 498.132 368.724 498.332 368.884C498.54 369.036 498.82 369.112 499.172 369.112ZM504.115 372.64L505.543 369.508H505.195L502.843 364.048H504.223L506.047 368.452L507.955 364.048H509.299L505.459 372.64H504.115Z" fill="black"/>
<rect x="70" y="170" width="47" height="175" rx="10" fill="#5793AC"/>
<rect x="135" y="312" width="47" height="33" rx="10" fill="#5793AC"/>
<rect x="265" y="312" width="47" height="33" rx="10" fill="#5793AC"/>
<rect x="330" y="251" width="47" height="94" rx="10" fill="#5793AC"/>
<rect x="395" y="193" width="47" height="152" rx="10" fill="#5793AC"/>
<path d="M27.8105 18.7812V33H24.8906V18.7812H27.8105ZM32.1855 18.7812V21.0762H20.584V18.7812H32.1855ZM36.4238 18V33H33.6113V18H36.4238ZM36.0234 27.3457H35.252C35.2585 26.61 35.3561 25.9329 35.5449 25.3145C35.7337 24.6895 36.0039 24.1491 36.3555 23.6934C36.707 23.2311 37.127 22.873 37.6152 22.6191C38.11 22.3652 38.6569 22.2383 39.2559 22.2383C39.7767 22.2383 40.2487 22.3132 40.6719 22.4629C41.1016 22.6061 41.4694 22.8405 41.7754 23.166C42.0879 23.485 42.3288 23.9049 42.498 24.4258C42.6673 24.9466 42.752 25.5781 42.752 26.3203V33H39.9199V26.3008C39.9199 25.832 39.8516 25.4642 39.7148 25.1973C39.5846 24.9238 39.3926 24.7318 39.1387 24.6211C38.8913 24.5039 38.5853 24.4453 38.2207 24.4453C37.8171 24.4453 37.472 24.5202 37.1855 24.6699C36.9056 24.8197 36.681 25.028 36.5117 25.2949C36.3424 25.5553 36.2188 25.8613 36.1406 26.2129C36.0625 26.5645 36.0234 26.9421 36.0234 27.3457ZM47.8594 22.4336V33H45.0371V22.4336H47.8594ZM44.8613 19.6797C44.8613 19.2695 45.0046 18.931 45.291 18.6641C45.5775 18.3971 45.9616 18.2637 46.4434 18.2637C46.9186 18.2637 47.2995 18.3971 47.5859 18.6641C47.8789 18.931 48.0254 19.2695 48.0254 19.6797C48.0254 20.0898 47.8789 20.4284 47.5859 20.6953C47.2995 20.9622 46.9186 21.0957 46.4434 21.0957C45.9616 21.0957 45.5775 20.9622 45.291 20.6953C45.0046 20.4284 44.8613 20.0898 44.8613 19.6797ZM55.8965 30.0801C55.8965 29.8783 55.8379 29.696 55.7207 29.5332C55.6035 29.3704 55.3854 29.2207 55.0664 29.084C54.7539 28.9408 54.3014 28.8105 53.709 28.6934C53.1751 28.5762 52.6771 28.4297 52.2148 28.2539C51.7591 28.0716 51.362 27.8535 51.0234 27.5996C50.6914 27.3457 50.431 27.0462 50.2422 26.7012C50.0534 26.3496 49.959 25.9492 49.959 25.5C49.959 25.0573 50.0534 24.6406 50.2422 24.25C50.4375 23.8594 50.7142 23.5143 51.0723 23.2148C51.4368 22.9089 51.8796 22.6712 52.4004 22.502C52.9277 22.3262 53.5202 22.2383 54.1777 22.2383C55.0957 22.2383 55.8835 22.3848 56.541 22.6777C57.2051 22.9707 57.7129 23.3743 58.0645 23.8887C58.4225 24.3965 58.6016 24.9759 58.6016 25.627H55.7891C55.7891 25.3535 55.7305 25.1094 55.6133 24.8945C55.5026 24.6732 55.3268 24.5007 55.0859 24.377C54.8516 24.2467 54.5456 24.1816 54.168 24.1816C53.8555 24.1816 53.5853 24.237 53.3574 24.3477C53.1296 24.4518 52.9538 24.5951 52.8301 24.7773C52.7129 24.9531 52.6543 25.1484 52.6543 25.3633C52.6543 25.526 52.6868 25.6725 52.752 25.8027C52.8236 25.9264 52.9375 26.0404 53.0938 26.1445C53.25 26.2487 53.4518 26.3464 53.6992 26.4375C53.9531 26.5221 54.2656 26.6003 54.6367 26.6719C55.3984 26.8281 56.0788 27.0332 56.6777 27.2871C57.2767 27.5345 57.752 27.873 58.1035 28.3027C58.4551 28.7259 58.6309 29.2826 58.6309 29.9727C58.6309 30.4414 58.5267 30.8711 58.3184 31.2617C58.11 31.6523 57.8105 31.9941 57.4199 32.2871C57.0293 32.5736 56.5605 32.7982 56.0137 32.9609C55.4733 33.1172 54.8646 33.1953 54.1875 33.1953C53.2044 33.1953 52.3711 33.0195 51.6875 32.668C51.0104 32.3164 50.4961 31.8704 50.1445 31.3301C49.7995 30.7832 49.627 30.2233 49.627 29.6504H52.293C52.306 30.0345 52.4036 30.3438 52.5859 30.5781C52.7747 30.8125 53.0124 30.9818 53.2988 31.0859C53.5918 31.1901 53.9076 31.2422 54.2461 31.2422C54.6107 31.2422 54.9134 31.1934 55.1543 31.0957C55.3952 30.9915 55.5775 30.8548 55.7012 30.6855C55.8314 30.5098 55.8965 30.3079 55.8965 30.0801ZM69.041 30.7441L71.873 18.7812H73.4551L73.8164 20.7734L70.7988 33H69.0996L69.041 30.7441ZM67.5859 18.7812L69.9297 30.7441L69.7344 33H67.8398L64.6855 18.7812H67.5859ZM76.3066 30.6953L78.6211 18.7812H81.5215L78.377 33H76.4824L76.3066 30.6953ZM74.3438 18.7812L77.1953 30.793L77.1172 33H75.418L72.3809 20.7637L72.7715 18.7812H74.3438ZM87.4883 33.1953C86.668 33.1953 85.9323 33.0651 85.2812 32.8047C84.6302 32.5378 84.0768 32.1699 83.6211 31.7012C83.1719 31.2324 82.8268 30.6888 82.5859 30.0703C82.3451 29.4453 82.2246 28.7812 82.2246 28.0781V27.6875C82.2246 26.8867 82.3385 26.1543 82.5664 25.4902C82.7943 24.8262 83.1198 24.25 83.543 23.7617C83.9727 23.2734 84.4935 22.8991 85.1055 22.6387C85.7174 22.3717 86.4076 22.2383 87.1758 22.2383C87.9245 22.2383 88.5885 22.362 89.168 22.6094C89.7474 22.8568 90.2324 23.2083 90.623 23.6641C91.0202 24.1198 91.3197 24.6667 91.5215 25.3047C91.7233 25.9362 91.8242 26.6393 91.8242 27.4141V28.5859H83.4258V26.7109H89.0605V26.4961C89.0605 26.1055 88.9889 25.7572 88.8457 25.4512C88.709 25.1387 88.5007 24.8913 88.2207 24.709C87.9408 24.5267 87.5827 24.4355 87.1465 24.4355C86.7754 24.4355 86.4564 24.5169 86.1895 24.6797C85.9225 24.8424 85.7044 25.0703 85.5352 25.3633C85.3724 25.6562 85.2487 26.0013 85.1641 26.3984C85.0859 26.7891 85.0469 27.2188 85.0469 27.6875V28.0781C85.0469 28.5013 85.1055 28.8919 85.2227 29.25C85.3464 29.6081 85.5189 29.9173 85.7402 30.1777C85.9681 30.4382 86.2415 30.64 86.5605 30.7832C86.8861 30.9264 87.2539 30.998 87.6641 30.998C88.1719 30.998 88.6439 30.9004 89.0801 30.7051C89.5228 30.5033 89.9036 30.2005 90.2227 29.7969L91.5898 31.2812C91.3685 31.6003 91.0658 31.9062 90.6816 32.1992C90.304 32.4922 89.8483 32.7331 89.3145 32.9219C88.7806 33.1042 88.1719 33.1953 87.4883 33.1953ZM98.2891 33.1953C97.4688 33.1953 96.7331 33.0651 96.082 32.8047C95.431 32.5378 94.8776 32.1699 94.4219 31.7012C93.9727 31.2324 93.6276 30.6888 93.3867 30.0703C93.1458 29.4453 93.0254 28.7812 93.0254 28.0781V27.6875C93.0254 26.8867 93.1393 26.1543 93.3672 25.4902C93.5951 24.8262 93.9206 24.25 94.3438 23.7617C94.7734 23.2734 95.2943 22.8991 95.9062 22.6387C96.5182 22.3717 97.2083 22.2383 97.9766 22.2383C98.7253 22.2383 99.3893 22.362 99.9688 22.6094C100.548 22.8568 101.033 23.2083 101.424 23.6641C101.821 24.1198 102.12 24.6667 102.322 25.3047C102.524 25.9362 102.625 26.6393 102.625 27.4141V28.5859H94.2266V26.7109H99.8613V26.4961C99.8613 26.1055 99.7897 25.7572 99.6465 25.4512C99.5098 25.1387 99.3014 24.8913 99.0215 24.709C98.7415 24.5267 98.3835 24.4355 97.9473 24.4355C97.5762 24.4355 97.2572 24.5169 96.9902 24.6797C96.7233 24.8424 96.5052 25.0703 96.3359 25.3633C96.1732 25.6562 96.0495 26.0013 95.9648 26.3984C95.8867 26.7891 95.8477 27.2188 95.8477 27.6875V28.0781C95.8477 28.5013 95.9062 28.8919 96.0234 29.25C96.1471 29.6081 96.3197 29.9173 96.541 30.1777C96.7689 30.4382 97.0423 30.64 97.3613 30.7832C97.6868 30.9264 98.0547 30.998 98.4648 30.998C98.9727 30.998 99.4447 30.9004 99.8809 30.7051C100.324 30.5033 100.704 30.2005 101.023 29.7969L102.391 31.2812C102.169 31.6003 101.867 31.9062 101.482 32.1992C101.105 32.4922 100.649 32.7331 100.115 32.9219C99.5814 33.1042 98.9727 33.1953 98.2891 33.1953ZM107.039 17.9902V33H104.227V17.9902H107.039ZM113.699 22.4336L109.109 27.668L106.648 30.1582L105.623 28.127L107.576 25.6465L110.32 22.4336H113.699ZM110.779 33L107.654 28.1172L109.598 26.418L114.021 33H110.779Z" fill="black"/>
<path d="M123.41 26L128 30.58L132.59 26L134 27.41L128 33.41L122 27.41L123.41 26Z" fill="black"/>
<path d="M24.1426 42.4688V51H23.0293V42.4688H24.1426ZM26.8848 42.4688V43.3945H20.293V42.4688H26.8848ZM29.1641 44.6602V51H28.0742V44.6602H29.1641ZM27.9922 42.9785C27.9922 42.8027 28.0449 42.6543 28.1504 42.5332C28.2598 42.4121 28.4199 42.3516 28.6309 42.3516C28.8379 42.3516 28.9961 42.4121 29.1055 42.5332C29.2188 42.6543 29.2754 42.8027 29.2754 42.9785C29.2754 43.1465 29.2188 43.291 29.1055 43.4121C28.9961 43.5293 28.8379 43.5879 28.6309 43.5879C28.4199 43.5879 28.2598 43.5293 28.1504 43.4121C28.0449 43.291 27.9922 43.1465 27.9922 42.9785ZM31.9824 45.9199V51H30.8926V44.6602H31.9238L31.9824 45.9199ZM31.7598 47.5898L31.2559 47.5723C31.2598 47.1387 31.3164 46.7383 31.4258 46.3711C31.5352 46 31.6973 45.6777 31.9121 45.4043C32.127 45.1309 32.3945 44.9199 32.7148 44.7715C33.0352 44.6191 33.4062 44.543 33.8281 44.543C34.125 44.543 34.3984 44.5859 34.6484 44.6719C34.8984 44.7539 35.1152 44.8848 35.2988 45.0645C35.4824 45.2441 35.625 45.4746 35.7266 45.7559C35.8281 46.0371 35.8789 46.377 35.8789 46.7754V51H34.7949V46.8281C34.7949 46.4961 34.7383 46.2305 34.625 46.0312C34.5156 45.832 34.3594 45.6875 34.1562 45.5977C33.9531 45.5039 33.7148 45.457 33.4414 45.457C33.1211 45.457 32.8535 45.5137 32.6387 45.627C32.4238 45.7402 32.252 45.8965 32.123 46.0957C31.9941 46.2949 31.9004 46.5234 31.8418 46.7812C31.7871 47.0352 31.7598 47.3047 31.7598 47.5898ZM35.8672 46.9922L35.1406 47.2148C35.1445 46.8672 35.2012 46.5332 35.3105 46.2129C35.4238 45.8926 35.5859 45.6074 35.7969 45.3574C36.0117 45.1074 36.2754 44.9102 36.5879 44.7656C36.9004 44.6172 37.2578 44.543 37.6602 44.543C38 44.543 38.3008 44.5879 38.5625 44.6777C38.8281 44.7676 39.0508 44.9062 39.2305 45.0938C39.4141 45.2773 39.5527 45.5137 39.6465 45.8027C39.7402 46.0918 39.7871 46.4355 39.7871 46.834V51H38.6973V46.8223C38.6973 46.4668 38.6406 46.1914 38.5273 45.9961C38.418 45.7969 38.2617 45.6582 38.0586 45.5801C37.8594 45.498 37.6211 45.457 37.3438 45.457C37.1055 45.457 36.8945 45.498 36.7109 45.5801C36.5273 45.6621 36.373 45.7754 36.248 45.9199C36.123 46.0605 36.0273 46.2227 35.9609 46.4062C35.8984 46.5898 35.8672 46.7852 35.8672 46.9922ZM44.0586 51.1172C43.6172 51.1172 43.2168 51.043 42.8574 50.8945C42.502 50.7422 42.1953 50.5293 41.9375 50.2559C41.6836 49.9824 41.4883 49.6582 41.3516 49.2832C41.2148 48.9082 41.1465 48.498 41.1465 48.0527V47.8066C41.1465 47.291 41.2227 46.832 41.375 46.4297C41.5273 46.0234 41.7344 45.6797 41.9961 45.3984C42.2578 45.1172 42.5547 44.9043 42.8867 44.7598C43.2188 44.6152 43.5625 44.543 43.918 44.543C44.3711 44.543 44.7617 44.6211 45.0898 44.7773C45.4219 44.9336 45.6934 45.1523 45.9043 45.4336C46.1152 45.7109 46.2715 46.0391 46.373 46.418C46.4746 46.793 46.5254 47.2031 46.5254 47.6484V48.1348H41.791V47.25H45.4414V47.168C45.4258 46.8867 45.3672 46.6133 45.2656 46.3477C45.168 46.082 45.0117 45.8633 44.7969 45.6914C44.582 45.5195 44.2891 45.4336 43.918 45.4336C43.6719 45.4336 43.4453 45.4863 43.2383 45.5918C43.0312 45.6934 42.8535 45.8457 42.7051 46.0488C42.5566 46.252 42.4414 46.5 42.3594 46.793C42.2773 47.0859 42.2363 47.4238 42.2363 47.8066V48.0527C42.2363 48.3535 42.2773 48.6367 42.3594 48.9023C42.4453 49.1641 42.5684 49.3945 42.7285 49.5938C42.8926 49.793 43.0898 49.9492 43.3203 50.0625C43.5547 50.1758 43.8203 50.2324 44.1172 50.2324C44.5 50.2324 44.8242 50.1543 45.0898 49.998C45.3555 49.8418 45.5879 49.6328 45.7871 49.3711L46.4434 49.8926C46.3066 50.0996 46.1328 50.2969 45.9219 50.4844C45.7109 50.6719 45.4512 50.8242 45.1426 50.9414C44.8379 51.0586 44.4766 51.1172 44.0586 51.1172ZM54.459 49.3184C54.459 49.1621 54.4238 49.0176 54.3535 48.8848C54.2871 48.748 54.1484 48.625 53.9375 48.5156C53.7305 48.4023 53.418 48.3047 53 48.2227C52.6484 48.1484 52.3301 48.0605 52.0449 47.959C51.7637 47.8574 51.5234 47.7344 51.3242 47.5898C51.1289 47.4453 50.9785 47.2754 50.873 47.0801C50.7676 46.8848 50.7148 46.6562 50.7148 46.3945C50.7148 46.1445 50.7695 45.9082 50.8789 45.6855C50.9922 45.4629 51.1504 45.2656 51.3535 45.0938C51.5605 44.9219 51.8086 44.7871 52.0977 44.6895C52.3867 44.5918 52.709 44.543 53.0645 44.543C53.5723 44.543 54.0059 44.6328 54.3652 44.8125C54.7246 44.9922 55 45.2324 55.1914 45.5332C55.3828 45.8301 55.4785 46.1602 55.4785 46.5234H54.3945C54.3945 46.3477 54.3418 46.1777 54.2363 46.0137C54.1348 45.8457 53.9844 45.707 53.7852 45.5977C53.5898 45.4883 53.3496 45.4336 53.0645 45.4336C52.7637 45.4336 52.5195 45.4805 52.332 45.5742C52.1484 45.6641 52.0137 45.7793 51.9277 45.9199C51.8457 46.0605 51.8047 46.209 51.8047 46.3652C51.8047 46.4824 51.8242 46.5879 51.8633 46.6816C51.9062 46.7715 51.9805 46.8555 52.0859 46.9336C52.1914 47.0078 52.3398 47.0781 52.5312 47.1445C52.7227 47.2109 52.9668 47.2773 53.2637 47.3438C53.7832 47.4609 54.2109 47.6016 54.5469 47.7656C54.8828 47.9297 55.1328 48.1309 55.2969 48.3691C55.4609 48.6074 55.543 48.8965 55.543 49.2363C55.543 49.5137 55.4844 49.7676 55.3672 49.998C55.2539 50.2285 55.0879 50.4277 54.8691 50.5957C54.6543 50.7598 54.3965 50.8887 54.0957 50.9824C53.7988 51.0723 53.4648 51.1172 53.0938 51.1172C52.5352 51.1172 52.0625 51.0176 51.6758 50.8184C51.2891 50.6191 50.9961 50.3613 50.7969 50.0449C50.5977 49.7285 50.498 49.3945 50.498 49.043H51.5879C51.6035 49.3398 51.6895 49.5762 51.8457 49.752C52.002 49.9238 52.1934 50.0469 52.4199 50.1211C52.6465 50.1914 52.8711 50.2266 53.0938 50.2266C53.3906 50.2266 53.6387 50.1875 53.8379 50.1094C54.041 50.0312 54.1953 49.9238 54.3008 49.7871C54.4062 49.6504 54.459 49.4941 54.459 49.3184ZM58.0508 45.8789V53.4375H56.9609V44.6602H57.957L58.0508 45.8789ZM62.3223 47.7773V47.9004C62.3223 48.3613 62.2676 48.7891 62.1582 49.1836C62.0488 49.5742 61.8887 49.9141 61.6777 50.2031C61.4707 50.4922 61.2148 50.7168 60.9102 50.877C60.6055 51.0371 60.2559 51.1172 59.8613 51.1172C59.459 51.1172 59.1035 51.0508 58.7949 50.918C58.4863 50.7852 58.2246 50.5918 58.0098 50.3379C57.7949 50.084 57.623 49.7793 57.4941 49.4238C57.3691 49.0684 57.2832 48.668 57.2363 48.2227V47.5664C57.2832 47.0977 57.3711 46.6777 57.5 46.3066C57.6289 45.9355 57.7988 45.6191 58.0098 45.3574C58.2246 45.0918 58.4844 44.8906 58.7891 44.7539C59.0938 44.6133 59.4453 44.543 59.8438 44.543C60.2422 44.543 60.5957 44.6211 60.9043 44.7773C61.2129 44.9297 61.4727 45.1484 61.6836 45.4336C61.8945 45.7188 62.0527 46.0605 62.1582 46.459C62.2676 46.8535 62.3223 47.293 62.3223 47.7773ZM61.2324 47.9004V47.7773C61.2324 47.4609 61.1992 47.1641 61.1328 46.8867C61.0664 46.6055 60.9629 46.3594 60.8223 46.1484C60.6855 45.9336 60.5098 45.7656 60.2949 45.6445C60.0801 45.5195 59.8242 45.457 59.5273 45.457C59.2539 45.457 59.0156 45.5039 58.8125 45.5977C58.6133 45.6914 58.4434 45.8184 58.3027 45.9785C58.1621 46.1348 58.0469 46.3145 57.957 46.5176C57.8711 46.7168 57.8066 46.9238 57.7637 47.1387V48.6562C57.8418 48.9297 57.9512 49.1875 58.0918 49.4297C58.2324 49.668 58.4199 49.8613 58.6543 50.0098C58.8887 50.1543 59.1836 50.2266 59.5391 50.2266C59.832 50.2266 60.084 50.166 60.2949 50.0449C60.5098 49.9199 60.6855 49.75 60.8223 49.5352C60.9629 49.3203 61.0664 49.0742 61.1328 48.7969C61.1992 48.5156 61.2324 48.2168 61.2324 47.9004ZM66.3359 51.1172C65.8945 51.1172 65.4941 51.043 65.1348 50.8945C64.7793 50.7422 64.4727 50.5293 64.2148 50.2559C63.9609 49.9824 63.7656 49.6582 63.6289 49.2832C63.4922 48.9082 63.4238 48.498 63.4238 48.0527V47.8066C63.4238 47.291 63.5 46.832 63.6523 46.4297C63.8047 46.0234 64.0117 45.6797 64.2734 45.3984C64.5352 45.1172 64.832 44.9043 65.1641 44.7598C65.4961 44.6152 65.8398 44.543 66.1953 44.543C66.6484 44.543 67.0391 44.6211 67.3672 44.7773C67.6992 44.9336 67.9707 45.1523 68.1816 45.4336C68.3926 45.7109 68.5488 46.0391 68.6504 46.418C68.752 46.793 68.8027 47.2031 68.8027 47.6484V48.1348H64.0684V47.25H67.7188V47.168C67.7031 46.8867 67.6445 46.6133 67.543 46.3477C67.4453 46.082 67.2891 45.8633 67.0742 45.6914C66.8594 45.5195 66.5664 45.4336 66.1953 45.4336C65.9492 45.4336 65.7227 45.4863 65.5156 45.5918C65.3086 45.6934 65.1309 45.8457 64.9824 46.0488C64.834 46.252 64.7188 46.5 64.6367 46.793C64.5547 47.0859 64.5137 47.4238 64.5137 47.8066V48.0527C64.5137 48.3535 64.5547 48.6367 64.6367 48.9023C64.7227 49.1641 64.8457 49.3945 65.0059 49.5938C65.1699 49.793 65.3672 49.9492 65.5977 50.0625C65.832 50.1758 66.0977 50.2324 66.3945 50.2324C66.7773 50.2324 67.1016 50.1543 67.3672 49.998C67.6328 49.8418 67.8652 49.6328 68.0645 49.3711L68.7207 49.8926C68.584 50.0996 68.4102 50.2969 68.1992 50.4844C67.9883 50.6719 67.7285 50.8242 67.4199 50.9414C67.1152 51.0586 66.7539 51.1172 66.3359 51.1172ZM71.1523 46.0137V51H70.0684V44.6602H71.0938L71.1523 46.0137ZM70.8945 47.5898L70.4434 47.5723C70.4473 47.1387 70.5117 46.7383 70.6367 46.3711C70.7617 46 70.9375 45.6777 71.1641 45.4043C71.3906 45.1309 71.6602 44.9199 71.9727 44.7715C72.2891 44.6191 72.6387 44.543 73.0215 44.543C73.334 44.543 73.6152 44.5859 73.8652 44.6719C74.1152 44.7539 74.3281 44.8867 74.5039 45.0703C74.6836 45.2539 74.8203 45.4922 74.9141 45.7852C75.0078 46.0742 75.0547 46.4277 75.0547 46.8457V51H73.9648V46.834C73.9648 46.502 73.916 46.2363 73.8184 46.0371C73.7207 45.834 73.5781 45.6875 73.3906 45.5977C73.2031 45.5039 72.9727 45.457 72.6992 45.457C72.4297 45.457 72.1836 45.5137 71.9609 45.627C71.7422 45.7402 71.5527 45.8965 71.3926 46.0957C71.2363 46.2949 71.1133 46.5234 71.0234 46.7812C70.9375 47.0352 70.8945 47.3047 70.8945 47.5898ZM79.3555 44.6602V45.4922H75.9277V44.6602H79.3555ZM77.0879 43.1191H78.1719V49.4297C78.1719 49.6445 78.2051 49.8066 78.2715 49.916C78.3379 50.0254 78.4238 50.0977 78.5293 50.1328C78.6348 50.168 78.748 50.1855 78.8691 50.1855C78.959 50.1855 79.0527 50.1777 79.1504 50.1621C79.252 50.1426 79.3281 50.127 79.3789 50.1152L79.3848 51C79.2988 51.0273 79.1855 51.0527 79.0449 51.0762C78.9082 51.1035 78.7422 51.1172 78.5469 51.1172C78.2812 51.1172 78.0371 51.0645 77.8145 50.959C77.5918 50.8535 77.4141 50.6777 77.2812 50.4316C77.1523 50.1816 77.0879 49.8457 77.0879 49.4238V43.1191ZM83.3164 47.9004V47.7656C83.3164 47.3086 83.3828 46.8848 83.5156 46.4941C83.6484 46.0996 83.8398 45.7578 84.0898 45.4688C84.3398 45.1758 84.6426 44.9492 84.998 44.7891C85.3535 44.625 85.752 44.543 86.1934 44.543C86.6387 44.543 87.0391 44.625 87.3945 44.7891C87.7539 44.9492 88.0586 45.1758 88.3086 45.4688C88.5625 45.7578 88.7559 46.0996 88.8887 46.4941C89.0215 46.8848 89.0879 47.3086 89.0879 47.7656V47.9004C89.0879 48.3574 89.0215 48.7812 88.8887 49.1719C88.7559 49.5625 88.5625 49.9043 88.3086 50.1973C88.0586 50.4863 87.7559 50.7129 87.4004 50.877C87.0488 51.0371 86.6504 51.1172 86.2051 51.1172C85.7598 51.1172 85.3594 51.0371 85.0039 50.877C84.6484 50.7129 84.3438 50.4863 84.0898 50.1973C83.8398 49.9043 83.6484 49.5625 83.5156 49.1719C83.3828 48.7812 83.3164 48.3574 83.3164 47.9004ZM84.4004 47.7656V47.9004C84.4004 48.2168 84.4375 48.5156 84.5117 48.7969C84.5859 49.0742 84.6973 49.3203 84.8457 49.5352C84.998 49.75 85.1875 49.9199 85.4141 50.0449C85.6406 50.166 85.9043 50.2266 86.2051 50.2266C86.502 50.2266 86.7617 50.166 86.9844 50.0449C87.2109 49.9199 87.3984 49.75 87.5469 49.5352C87.6953 49.3203 87.8066 49.0742 87.8809 48.7969C87.959 48.5156 87.998 48.2168 87.998 47.9004V47.7656C87.998 47.4531 87.959 47.1582 87.8809 46.8809C87.8066 46.5996 87.6934 46.3516 87.541 46.1367C87.3926 45.918 87.2051 45.7461 86.9785 45.6211C86.7559 45.4961 86.4941 45.4336 86.1934 45.4336C85.8965 45.4336 85.6348 45.4961 85.4082 45.6211C85.1855 45.7461 84.998 45.918 84.8457 46.1367C84.6973 46.3516 84.5859 46.5996 84.5117 46.8809C84.4375 47.1582 84.4004 47.4531 84.4004 47.7656ZM91.5312 46.0137V51H90.4473V44.6602H91.4727L91.5312 46.0137ZM91.2734 47.5898L90.8223 47.5723C90.8262 47.1387 90.8906 46.7383 91.0156 46.3711C91.1406 46 91.3164 45.6777 91.543 45.4043C91.7695 45.1309 92.0391 44.9199 92.3516 44.7715C92.668 44.6191 93.0176 44.543 93.4004 44.543C93.7129 44.543 93.9941 44.5859 94.2441 44.6719C94.4941 44.7539 94.707 44.8867 94.8828 45.0703C95.0625 45.2539 95.1992 45.4922 95.293 45.7852C95.3867 46.0742 95.4336 46.4277 95.4336 46.8457V51H94.3438V46.834C94.3438 46.502 94.2949 46.2363 94.1973 46.0371C94.0996 45.834 93.957 45.6875 93.7695 45.5977C93.582 45.5039 93.3516 45.457 93.0781 45.457C92.8086 45.457 92.5625 45.5137 92.3398 45.627C92.1211 45.7402 91.9316 45.8965 91.7715 46.0957C91.6152 46.2949 91.4922 46.5234 91.4023 46.7812C91.3164 47.0352 91.2734 47.3047 91.2734 47.5898ZM102.594 50.2266C102.852 50.2266 103.09 50.1738 103.309 50.0684C103.527 49.9629 103.707 49.8184 103.848 49.6348C103.988 49.4473 104.068 49.2344 104.088 48.9961H105.119C105.1 49.3711 104.973 49.7207 104.738 50.0449C104.508 50.3652 104.205 50.625 103.83 50.8242C103.455 51.0195 103.043 51.1172 102.594 51.1172C102.117 51.1172 101.701 51.0332 101.346 50.8652C100.994 50.6973 100.701 50.4668 100.467 50.1738C100.236 49.8809 100.062 49.5449 99.9453 49.166C99.832 48.7832 99.7754 48.3789 99.7754 47.9531V47.707C99.7754 47.2812 99.832 46.8789 99.9453 46.5C100.062 46.1172 100.236 45.7793 100.467 45.4863C100.701 45.1934 100.994 44.9629 101.346 44.7949C101.701 44.627 102.117 44.543 102.594 44.543C103.09 44.543 103.523 44.6445 103.895 44.8477C104.266 45.0469 104.557 45.3203 104.768 45.668C104.982 46.0117 105.1 46.4023 105.119 46.8398H104.088C104.068 46.5781 103.994 46.3418 103.865 46.1309C103.74 45.9199 103.568 45.752 103.35 45.627C103.135 45.498 102.883 45.4336 102.594 45.4336C102.262 45.4336 101.982 45.5 101.756 45.6328C101.533 45.7617 101.355 45.9375 101.223 46.1602C101.094 46.3789 101 46.623 100.941 46.8926C100.887 47.1582 100.859 47.4297 100.859 47.707V47.9531C100.859 48.2305 100.887 48.5039 100.941 48.7734C100.996 49.043 101.088 49.2871 101.217 49.5059C101.35 49.7246 101.527 49.9004 101.75 50.0332C101.977 50.1621 102.258 50.2266 102.594 50.2266ZM106.051 47.9004V47.7656C106.051 47.3086 106.117 46.8848 106.25 46.4941C106.383 46.0996 106.574 45.7578 106.824 45.4688C107.074 45.1758 107.377 44.9492 107.732 44.7891C108.088 44.625 108.486 44.543 108.928 44.543C109.373 44.543 109.773 44.625 110.129 44.7891C110.488 44.9492 110.793 45.1758 111.043 45.4688C111.297 45.7578 111.49 46.0996 111.623 46.4941C111.756 46.8848 111.822 47.3086 111.822 47.7656V47.9004C111.822 48.3574 111.756 48.7812 111.623 49.1719C111.49 49.5625 111.297 49.9043 111.043 50.1973C110.793 50.4863 110.49 50.7129 110.135 50.877C109.783 51.0371 109.385 51.1172 108.939 51.1172C108.494 51.1172 108.094 51.0371 107.738 50.877C107.383 50.7129 107.078 50.4863 106.824 50.1973C106.574 49.9043 106.383 49.5625 106.25 49.1719C106.117 48.7812 106.051 48.3574 106.051 47.9004ZM107.135 47.7656V47.9004C107.135 48.2168 107.172 48.5156 107.246 48.7969C107.32 49.0742 107.432 49.3203 107.58 49.5352C107.732 49.75 107.922 49.9199 108.148 50.0449C108.375 50.166 108.639 50.2266 108.939 50.2266C109.236 50.2266 109.496 50.166 109.719 50.0449C109.945 49.9199 110.133 49.75 110.281 49.5352C110.43 49.3203 110.541 49.0742 110.615 48.7969C110.693 48.5156 110.732 48.2168 110.732 47.9004V47.7656C110.732 47.4531 110.693 47.1582 110.615 46.8809C110.541 46.5996 110.428 46.3516 110.275 46.1367C110.127 45.918 109.939 45.7461 109.713 45.6211C109.49 45.4961 109.229 45.4336 108.928 45.4336C108.631 45.4336 108.369 45.4961 108.143 45.6211C107.92 45.7461 107.732 45.918 107.58 46.1367C107.432 46.3516 107.32 46.5996 107.246 46.8809C107.172 47.1582 107.135 47.4531 107.135 47.7656ZM117.061 49.5352V44.6602H118.15V51H117.113L117.061 49.5352ZM117.266 48.1992L117.717 48.1875C117.717 48.6094 117.672 49 117.582 49.3594C117.496 49.7148 117.355 50.0234 117.16 50.2852C116.965 50.5469 116.709 50.752 116.393 50.9004C116.076 51.0449 115.691 51.1172 115.238 51.1172C114.93 51.1172 114.646 51.0723 114.389 50.9824C114.135 50.8926 113.916 50.7539 113.732 50.5664C113.549 50.3789 113.406 50.1348 113.305 49.834C113.207 49.5332 113.158 49.1719 113.158 48.75V44.6602H114.242V48.7617C114.242 49.0469 114.273 49.2832 114.336 49.4707C114.402 49.6543 114.49 49.8008 114.6 49.9102C114.713 50.0156 114.838 50.0898 114.975 50.1328C115.115 50.1758 115.26 50.1973 115.408 50.1973C115.869 50.1973 116.234 50.1094 116.504 49.9336C116.773 49.7539 116.967 49.5137 117.084 49.2129C117.205 48.9082 117.266 48.5703 117.266 48.1992ZM120.887 45.6562V51H119.803V44.6602H120.857L120.887 45.6562ZM122.867 44.625L122.861 45.6328C122.771 45.6133 122.686 45.6016 122.604 45.5977C122.525 45.5898 122.436 45.5859 122.334 45.5859C122.084 45.5859 121.863 45.625 121.672 45.7031C121.48 45.7812 121.318 45.8906 121.186 46.0312C121.053 46.1719 120.947 46.3398 120.869 46.5352C120.795 46.7266 120.746 46.9375 120.723 47.168L120.418 47.3438C120.418 46.9609 120.455 46.6016 120.529 46.2656C120.607 45.9297 120.727 45.6328 120.887 45.375C121.047 45.1133 121.25 44.9102 121.496 44.7656C121.746 44.6172 122.043 44.543 122.387 44.543C122.465 44.543 122.555 44.5527 122.656 44.5723C122.758 44.5879 122.828 44.6055 122.867 44.625ZM127.561 49.3184C127.561 49.1621 127.525 49.0176 127.455 48.8848C127.389 48.748 127.25 48.625 127.039 48.5156C126.832 48.4023 126.52 48.3047 126.102 48.2227C125.75 48.1484 125.432 48.0605 125.146 47.959C124.865 47.8574 124.625 47.7344 124.426 47.5898C124.23 47.4453 124.08 47.2754 123.975 47.0801C123.869 46.8848 123.816 46.6562 123.816 46.3945C123.816 46.1445 123.871 45.9082 123.98 45.6855C124.094 45.4629 124.252 45.2656 124.455 45.0938C124.662 44.9219 124.91 44.7871 125.199 44.6895C125.488 44.5918 125.811 44.543 126.166 44.543C126.674 44.543 127.107 44.6328 127.467 44.8125C127.826 44.9922 128.102 45.2324 128.293 45.5332C128.484 45.8301 128.58 46.1602 128.58 46.5234H127.496C127.496 46.3477 127.443 46.1777 127.338 46.0137C127.236 45.8457 127.086 45.707 126.887 45.5977C126.691 45.4883 126.451 45.4336 126.166 45.4336C125.865 45.4336 125.621 45.4805 125.434 45.5742C125.25 45.6641 125.115 45.7793 125.029 45.9199C124.947 46.0605 124.906 46.209 124.906 46.3652C124.906 46.4824 124.926 46.5879 124.965 46.6816C125.008 46.7715 125.082 46.8555 125.188 46.9336C125.293 47.0078 125.441 47.0781 125.633 47.1445C125.824 47.2109 126.068 47.2773 126.365 47.3438C126.885 47.4609 127.312 47.6016 127.648 47.7656C127.984 47.9297 128.234 48.1309 128.398 48.3691C128.562 48.6074 128.645 48.8965 128.645 49.2363C128.645 49.5137 128.586 49.7676 128.469 49.998C128.355 50.2285 128.189 50.4277 127.971 50.5957C127.756 50.7598 127.498 50.8887 127.197 50.9824C126.9 51.0723 126.566 51.1172 126.195 51.1172C125.637 51.1172 125.164 51.0176 124.777 50.8184C124.391 50.6191 124.098 50.3613 123.898 50.0449C123.699 49.7285 123.6 49.3945 123.6 49.043H124.689C124.705 49.3398 124.791 49.5762 124.947 49.752C125.104 49.9238 125.295 50.0469 125.521 50.1211C125.748 50.1914 125.973 50.2266 126.195 50.2266C126.492 50.2266 126.74 50.1875 126.939 50.1094C127.143 50.0312 127.297 49.9238 127.402 49.7871C127.508 49.6504 127.561 49.4941 127.561 49.3184ZM132.699 51.1172C132.258 51.1172 131.857 51.043 131.498 50.8945C131.143 50.7422 130.836 50.5293 130.578 50.2559C130.324 49.9824 130.129 49.6582 129.992 49.2832C129.855 48.9082 129.787 48.498 129.787 48.0527V47.8066C129.787 47.291 129.863 46.832 130.016 46.4297C130.168 46.0234 130.375 45.6797 130.637 45.3984C130.898 45.1172 131.195 44.9043 131.527 44.7598C131.859 44.6152 132.203 44.543 132.559 44.543C133.012 44.543 133.402 44.6211 133.73 44.7773C134.062 44.9336 134.334 45.1523 134.545 45.4336C134.756 45.7109 134.912 46.0391 135.014 46.418C135.115 46.793 135.166 47.2031 135.166 47.6484V48.1348H130.432V47.25H134.082V47.168C134.066 46.8867 134.008 46.6133 133.906 46.3477C133.809 46.082 133.652 45.8633 133.438 45.6914C133.223 45.5195 132.93 45.4336 132.559 45.4336C132.312 45.4336 132.086 45.4863 131.879 45.5918C131.672 45.6934 131.494 45.8457 131.346 46.0488C131.197 46.252 131.082 46.5 131 46.793C130.918 47.0859 130.877 47.4238 130.877 47.8066V48.0527C130.877 48.3535 130.918 48.6367 131 48.9023C131.086 49.1641 131.209 49.3945 131.369 49.5938C131.533 49.793 131.73 49.9492 131.961 50.0625C132.195 50.1758 132.461 50.2324 132.758 50.2324C133.141 50.2324 133.465 50.1543 133.73 49.998C133.996 49.8418 134.229 49.6328 134.428 49.3711L135.084 49.8926C134.947 50.0996 134.773 50.2969 134.562 50.4844C134.352 50.6719 134.092 50.8242 133.783 50.9414C133.479 51.0586 133.117 51.1172 132.699 51.1172Z" fill="black" fill-opacity="0.53"/>
<path d="M144.5 50L147.531 44.75H141.469L144.5 50Z" fill="#E0AE47"/>
<path d="M155.774 49.1836V50H150.655V49.2856L153.217 46.4336C153.532 46.0827 153.776 45.7855 153.948 45.542C154.123 45.2949 154.245 45.0747 154.313 44.8813C154.385 44.6844 154.42 44.4839 154.42 44.2798C154.42 44.022 154.367 43.7892 154.259 43.5815C154.155 43.3703 154.001 43.202 153.797 43.0767C153.593 42.9513 153.346 42.8887 153.056 42.8887C152.709 42.8887 152.419 42.9567 152.186 43.0928C151.957 43.2253 151.785 43.4115 151.67 43.6514C151.556 43.8913 151.499 44.167 151.499 44.4785H150.505C150.505 44.0381 150.602 43.6353 150.795 43.27C150.988 42.9048 151.275 42.6147 151.654 42.3999C152.034 42.1815 152.501 42.0723 153.056 42.0723C153.55 42.0723 153.973 42.16 154.324 42.3354C154.675 42.5073 154.943 42.7508 155.129 43.0659C155.319 43.3774 155.414 43.7427 155.414 44.1616C155.414 44.3908 155.375 44.6235 155.296 44.8599C155.221 45.0926 155.115 45.3254 154.979 45.5581C154.847 45.7909 154.691 46.02 154.512 46.2456C154.336 46.4712 154.148 46.6932 153.948 46.9116L151.853 49.1836H155.774ZM161.747 45.4668V46.6592C161.747 47.3001 161.689 47.8408 161.575 48.2812C161.46 48.7217 161.295 49.0762 161.081 49.3447C160.866 49.6133 160.606 49.8084 160.302 49.9302C160.001 50.0483 159.661 50.1074 159.281 50.1074C158.98 50.1074 158.703 50.0698 158.449 49.9946C158.194 49.9194 157.965 49.7995 157.761 49.6348C157.561 49.4665 157.389 49.248 157.246 48.9795C157.102 48.7109 156.993 48.3851 156.918 48.002C156.843 47.6188 156.805 47.1712 156.805 46.6592V45.4668C156.805 44.8258 156.862 44.2887 156.977 43.8555C157.095 43.4222 157.262 43.0749 157.477 42.8135C157.691 42.5485 157.949 42.3587 158.25 42.2441C158.554 42.1296 158.895 42.0723 159.271 42.0723C159.575 42.0723 159.854 42.1099 160.108 42.1851C160.366 42.2567 160.595 42.373 160.796 42.5342C160.996 42.6917 161.167 42.903 161.306 43.168C161.449 43.4294 161.559 43.7498 161.634 44.1294C161.709 44.509 161.747 44.9548 161.747 45.4668ZM160.748 46.8203V45.3003C160.748 44.9494 160.726 44.6414 160.683 44.3765C160.644 44.1079 160.585 43.8787 160.506 43.689C160.427 43.4992 160.327 43.3452 160.205 43.2271C160.087 43.1089 159.949 43.0229 159.792 42.9692C159.638 42.9119 159.464 42.8833 159.271 42.8833C159.034 42.8833 158.825 42.9281 158.642 43.0176C158.459 43.1035 158.306 43.2414 158.18 43.4312C158.058 43.6209 157.965 43.8698 157.901 44.1777C157.836 44.4857 157.804 44.8599 157.804 45.3003V46.8203C157.804 47.1712 157.824 47.481 157.863 47.7495C157.906 48.0181 157.969 48.2508 158.051 48.4478C158.134 48.6411 158.234 48.8005 158.352 48.9258C158.47 49.0511 158.606 49.1442 158.76 49.2051C158.918 49.2624 159.091 49.291 159.281 49.291C159.525 49.291 159.738 49.2445 159.92 49.1514C160.103 49.0583 160.255 48.9132 160.377 48.7163C160.502 48.5158 160.595 48.2598 160.656 47.9482C160.717 47.6331 160.748 47.2572 160.748 46.8203ZM162.939 44.0972V43.6836C162.939 43.3864 163.003 43.116 163.132 42.8726C163.261 42.6291 163.446 42.4339 163.686 42.2871C163.925 42.1403 164.21 42.0669 164.54 42.0669C164.876 42.0669 165.163 42.1403 165.399 42.2871C165.639 42.4339 165.823 42.6291 165.952 42.8726C166.081 43.116 166.146 43.3864 166.146 43.6836V44.0972C166.146 44.3872 166.081 44.654 165.952 44.8975C165.827 45.141 165.644 45.3361 165.404 45.4829C165.168 45.6297 164.883 45.7031 164.55 45.7031C164.217 45.7031 163.929 45.6297 163.686 45.4829C163.446 45.3361 163.261 45.141 163.132 44.8975C163.003 44.654 162.939 44.3872 162.939 44.0972ZM163.686 43.6836V44.0972C163.686 44.2619 163.716 44.4176 163.777 44.5645C163.841 44.7113 163.938 44.8312 164.067 44.9243C164.196 45.0138 164.357 45.0586 164.55 45.0586C164.744 45.0586 164.903 45.0138 165.028 44.9243C165.154 44.8312 165.247 44.7113 165.308 44.5645C165.368 44.4176 165.399 44.2619 165.399 44.0972V43.6836C165.399 43.5153 165.367 43.3577 165.302 43.2109C165.241 43.0605 165.146 42.9406 165.018 42.8511C164.892 42.758 164.733 42.7114 164.54 42.7114C164.35 42.7114 164.19 42.758 164.062 42.8511C163.936 42.9406 163.841 43.0605 163.777 43.2109C163.716 43.3577 163.686 43.5153 163.686 43.6836ZM166.747 48.5015V48.0825C166.747 47.7889 166.812 47.5203 166.94 47.2769C167.069 47.0334 167.254 46.8382 167.494 46.6914C167.734 46.5446 168.018 46.4712 168.348 46.4712C168.684 46.4712 168.971 46.5446 169.207 46.6914C169.447 46.8382 169.631 47.0334 169.76 47.2769C169.889 47.5203 169.954 47.7889 169.954 48.0825V48.5015C169.954 48.7951 169.889 49.0636 169.76 49.3071C169.635 49.5506 169.452 49.7458 169.212 49.8926C168.976 50.0394 168.691 50.1128 168.358 50.1128C168.025 50.1128 167.739 50.0394 167.499 49.8926C167.259 49.7458 167.073 49.5506 166.94 49.3071C166.812 49.0636 166.747 48.7951 166.747 48.5015ZM167.494 48.0825V48.5015C167.494 48.6662 167.524 48.8237 167.585 48.9741C167.649 49.1209 167.746 49.2409 167.875 49.334C168.004 49.4235 168.165 49.4683 168.358 49.4683C168.552 49.4683 168.711 49.4235 168.836 49.334C168.965 49.2409 169.06 49.1209 169.121 48.9741C169.182 48.8273 169.212 48.6698 169.212 48.5015V48.0825C169.212 47.9142 169.18 47.7567 169.116 47.6099C169.055 47.4631 168.96 47.3449 168.831 47.2554C168.706 47.1623 168.545 47.1157 168.348 47.1157C168.158 47.1157 167.999 47.1623 167.87 47.2554C167.744 47.3449 167.649 47.4631 167.585 47.6099C167.524 47.7567 167.494 47.9142 167.494 48.0825ZM168.595 43.2915L164.776 49.4038L164.217 49.0493L168.036 42.937L168.595 43.2915Z" fill="#E0AE47"/>
<defs>
<filter id="filter0_d_490_198" x="0" y="0" width="582" height="396" filterUnits="userSpaceOnUse" color-interpolation-filters="sRGB">
<feFlood flood-opacity="0" result="BackgroundImageFix"/>
<feColorMatrix in="SourceAlpha" type="matrix" values="0 0 0 0 0 0 0 0 0 0 0 0 0 0 0 0 0 0 127 0" result="hardAlpha"/>
<feOffset dy="4"/>
<feGaussianBlur stdDeviation="2"/>
<feComposite in2="hardAlpha" operator="out"/>
<feColorMatrix type="matrix" values="0 0 0 0 0 0 0 0 0 0 0 0 0 0 0 0 0 0 0.25 0"/>
<feBlend mode="normal" in2="BackgroundImageFix" result="effect1_dropShadow_490_198"/>
<feBlend mode="normal" in="SourceGraphic" in2="effect1_dropShadow_490_198" result="shape"/>
</filter>
<filter id="filter1_d_490_198" x="66" y="69" width="55" height="284" filterUnits="userSpaceOnUse" color-interpolation-filters="sRGB">
<feFlood flood-opacity="0" result="BackgroundImageFix"/>
<feColorMatrix in="SourceAlpha" type="matrix" values="0 0 0 0 0 0 0 0 0 0 0 0 0 0 0 0 0 0 127 0" result="hardAlpha"/>
<feOffset dy="4"/>
<feGaussianBlur stdDeviation="2"/>
<feComposite in2="hardAlpha" operator="out"/>
<feColorMatrix type="matrix" values="0 0 0 0 0 0 0 0 0 0 0 0 0 0 0 0 0 0 0.25 0"/>
<feBlend mode="normal" in2="BackgroundImageFix" result="effect1_dropShadow_490_198"/>
<feBlend mode="normal" in="SourceGraphic" in2="effect1_dropShadow_490_198" result="shape"/>
</filter>
</defs>
</svg>
